HIERARCHY
ROOT Hips
{
	OFFSET -14.64140 90.27770 -84.91600
	CHANNELS 6 Xposition Yposition Zposition Zrotation Xrotation Yrotation
	JOINT Spine
	{
		OFFSET 0.00000 13.20850 -1.60436
		CHANNELS 3 Zrotation Xrotation Yrotation
		JOINT Spine1
		{
			OFFSET 0.00000 8.61716 0.00000
			CHANNELS 3 Zrotation Xrotation Yrotation
			JOINT Spine2
			{
				OFFSET 0.00000 8.61717 0.00000
				CHANNELS 3 Zrotation Xrotation Yrotation
				JOINT Spine3
				{
					OFFSET 0.00000 8.61717 0.00000
					CHANNELS 3 Zrotation Xrotation Yrotation
					JOINT Neck
					{
						OFFSET 0.00000 11.07920 1.10792
						CHANNELS 3 Zrotation Xrotation Yrotation
						JOINT Neck1
						{
							OFFSET 0.00000 7.08032 0.00000
							CHANNELS 3 Zrotation Xrotation Yrotation
							JOINT Head
							{
								OFFSET 0.00000 7.08031 0.00000
								CHANNELS 3 Zrotation Xrotation Yrotation
								End site
								{
									OFFSET 0.00000 0.00000 0.00000
								}
							}
						}
					}
					JOINT RightShoulder
					{
						OFFSET -0.01000 7.91373 5.19711
						CHANNELS 3 Zrotation Xrotation Yrotation
						JOINT RightArm
						{
							OFFSET -18.41580 0.00000 0.00000
							CHANNELS 3 Zrotation Xrotation Yrotation
							JOINT RightForeArm
							{
								OFFSET -29.11090 0.00000 0.00000
								CHANNELS 3 Zrotation Xrotation Yrotation
								JOINT RightHand
								{
									OFFSET -24.65040 0.00000 0.00000
									CHANNELS 3 Zrotation Xrotation Yrotation
									JOINT RightHandThumb1
									{
										OFFSET -5.35114 -0.85590 3.97906
										CHANNELS 3 Zrotation Xrotation Yrotation
										JOINT RightHandThumb2
										{
											OFFSET -4.52789 0.00000 0.00000
											CHANNELS 3 Zrotation Xrotation Yrotation
											JOINT RightHandThumb3
											{
												OFFSET -2.46976 0.00000 0.00000
												CHANNELS 3 Zrotation Xrotation Yrotation
												End site
												{
													OFFSET 0.00000 0.00000 0.00000
												}
											}
										}
									}
									JOINT RightHandIndex1
									{
										OFFSET -14.26970 0.00000 2.88139
										CHANNELS 3 Zrotation Xrotation Yrotation
										JOINT RightHandIndex2
										{
											OFFSET -5.48836 0.00000 0.00000
											CHANNELS 3 Zrotation Xrotation Yrotation
											JOINT RightHandIndex3
											{
												OFFSET -3.01859 0.00000 0.00000
												CHANNELS 3 Zrotation Xrotation Yrotation
												End site
												{
													OFFSET 0.00000 0.00000 0.00000
												}
											}
										}
									}
									JOINT RightHandMiddle1
									{
										OFFSET -14.26970 0.00000 -0.09147
										CHANNELS 3 Zrotation Xrotation Yrotation
										JOINT RightHandMiddle2
										{
											OFFSET -6.17441 0.00000 0.00000
											CHANNELS 3 Zrotation Xrotation Yrotation
											JOINT RightHandMiddle3
											{
												OFFSET -3.56743 0.00000 0.00000
												CHANNELS 3 Zrotation Xrotation Yrotation
												End site
												{
													OFFSET 0.00000 0.00000 0.00000
												}
											}
										}
									}
									JOINT RightHandRing1
									{
										OFFSET -12.69180 0.00000 -3.06433
										CHANNELS 3 Zrotation Xrotation Yrotation
										JOINT RightHandRing2
										{
											OFFSET -5.62556 0.00000 0.00000
											CHANNELS 3 Zrotation Xrotation Yrotation
											JOINT RightHandRing3
											{
												OFFSET -3.56744 0.00000 0.00000
												CHANNELS 3 Zrotation Xrotation Yrotation
												End site
												{
													OFFSET 0.00000 0.00000 0.00000
												}
											}
										}
									}
									JOINT RightHandPinky1
									{
										OFFSET -11.11390 0.00000 -6.03719
										CHANNELS 3 Zrotation Xrotation Yrotation
										JOINT RightHandPinky2
										{
											OFFSET -4.52789 0.00000 0.00000
											CHANNELS 3 Zrotation Xrotation Yrotation
											JOINT RightHandPinky3
											{
												OFFSET -2.46976 0.00000 0.00000
												CHANNELS 3 Zrotation Xrotation Yrotation
												End site
												{
													OFFSET 0.00000 0.00000 0.00000
												}
											}
										}
									}
								}
							}
						}
					}
					JOINT LeftShoulder
					{
						OFFSET 0.01000 7.91373 5.19711
						CHANNELS 3 Zrotation Xrotation Yrotation
						JOINT LeftArm
						{
							OFFSET 18.41580 0.00000 0.00000
							CHANNELS 3 Zrotation Xrotation Yrotation
							JOINT LeftForeArm
							{
								OFFSET 29.11090 0.00000 0.00000
								CHANNELS 3 Zrotation Xrotation Yrotation
								JOINT LeftHand
								{
									OFFSET 24.65040 0.00000 0.00000
									CHANNELS 3 Zrotation Xrotation Yrotation
									JOINT LeftHandThumb1
									{
										OFFSET 5.35114 -0.85590 3.97906
										CHANNELS 3 Zrotation Xrotation Yrotation
										JOINT LeftHandThumb2
										{
											OFFSET 4.52789 0.00000 0.00000
											CHANNELS 3 Zrotation Xrotation Yrotation
											JOINT LeftHandThumb3
											{
												OFFSET 2.46977 0.00000 0.00000
												CHANNELS 3 Zrotation Xrotation Yrotation
												End site
												{
													OFFSET 0.00000 0.00000 0.00000
												}
											}
										}
									}
									JOINT LeftHandIndex1
									{
										OFFSET 14.26970 0.00000 2.88139
										CHANNELS 3 Zrotation Xrotation Yrotation
										JOINT LeftHandIndex2
										{
											OFFSET 5.48836 0.00000 0.00000
											CHANNELS 3 Zrotation Xrotation Yrotation
											JOINT LeftHandIndex3
											{
												OFFSET 3.01859 0.00000 0.00000
												CHANNELS 3 Zrotation Xrotation Yrotation
												End site
												{
													OFFSET 0.00000 0.00000 0.00000
												}
											}
										}
									}
									JOINT LeftHandMiddle1
									{
										OFFSET 14.26970 0.00000 -0.09147
										CHANNELS 3 Zrotation Xrotation Yrotation
										JOINT LeftHandMiddle2
										{
											OFFSET 6.17440 0.00000 0.00000
											CHANNELS 3 Zrotation Xrotation Yrotation
											JOINT LeftHandMiddle3
											{
												OFFSET 3.56744 0.00000 0.00000
												CHANNELS 3 Zrotation Xrotation Yrotation
												End site
												{
													OFFSET 0.00000 0.00000 0.00000
												}
											}
										}
									}
									JOINT LeftHandRing1
									{
										OFFSET 12.69180 0.00000 -3.06433
										CHANNELS 3 Zrotation Xrotation Yrotation
										JOINT LeftHandRing2
										{
											OFFSET 5.62556 0.00000 0.00000
											CHANNELS 3 Zrotation Xrotation Yrotation
											JOINT LeftHandRing3
											{
												OFFSET 3.56744 0.00000 0.00000
												CHANNELS 3 Zrotation Xrotation Yrotation
												End site
												{
													OFFSET 0.00000 0.00000 0.00000
												}
											}
										}
									}
									JOINT LeftHandPinky1
									{
										OFFSET 11.11390 0.00000 -6.03719
										CHANNELS 3 Zrotation Xrotation Yrotation
										JOINT LeftHandPinky2
										{
											OFFSET 4.52789 0.00000 0.00000
											CHANNELS 3 Zrotation Xrotation Yrotation
											JOINT LeftHandPinky3
											{
												OFFSET 2.46976 0.00000 0.00000
												CHANNELS 3 Zrotation Xrotation Yrotation
												End site
												{
													OFFSET 0.00000 0.00000 0.00000
												}
											}
										}
									}
								}
							}
						}
					}
					JOINT pCube4
					{
						OFFSET 0.00000 10.91090 1.10792
						CHANNELS 3 Zrotation Xrotation Yrotation
						End site
						{
							OFFSET 0.00000 0.00000 0.00000
						}
					}
				}
			}
		}
	}
	JOINT RightUpLeg
	{
		OFFSET -9.98441 0.00000 0.00000
		CHANNELS 3 Zrotation Xrotation Yrotation
		JOINT RightLeg
		{
			OFFSET 0.00000 -42.11790 0.00000
			CHANNELS 3 Zrotation Xrotation Yrotation
			JOINT RightFoot
			{
				OFFSET 0.00000 -45.00020 -0.00001
				CHANNELS 3 Zrotation Xrotation Yrotation
				JOINT RightForeFoot
				{
					OFFSET 0.00000 -3.74820 0.00000
					CHANNELS 3 Zrotation Xrotation Yrotation
					JOINT RightToeBase
					{
						OFFSET 0.00000 0.06325 14.43120
						CHANNELS 3 Zrotation Xrotation Yrotation
						End site
						{
							OFFSET 0.00000 0.00000 0.00000
						}
					}
				}
			}
		}
	}
	JOINT LeftUpLeg
	{
		OFFSET 9.98441 0.00000 0.00000
		CHANNELS 3 Zrotation Xrotation Yrotation
		JOINT LeftLeg
		{
			OFFSET 0.00000 -42.11800 0.00000
			CHANNELS 3 Zrotation Xrotation Yrotation
			JOINT LeftFoot
			{
				OFFSET 0.00000 -45.00070 0.00000
				CHANNELS 3 Zrotation Xrotation Yrotation
				JOINT LeftForeFoot
				{
					OFFSET 0.00000 -3.74824 0.00000
					CHANNELS 3 Zrotation Xrotation Yrotation
					JOINT LeftToeBase
					{
						OFFSET 0.00000 0.06325 14.43110
						CHANNELS 3 Zrotation Xrotation Yrotation
						End site
						{
							OFFSET 0.00000 0.00000 0.00000
						}
					}
				}
			}
		}
	}
}
MOTION
Frames: 4
Frame Time: 0.050000
0.028230544595737286 0.02705500069501945 0.029141368184745626 0.0036596905435285856 0.033434622608091984 0.011020007779340278 -3.303929958391327 1.5403743415421136 -0.7523472370542243 -0.9644230097405315 3.589066935014485 0.3531518605792196 -1.2984834122387063 -2.3998117605774816 -2.0205449266717372 -1.2062318941550074 -0.04353063088300491 -0.9022036351261691 -0.8826600509673299 15.708878943694494 2.037201034670688 0.27560296745531104 1.1320228629883398 4.305622470173076 -0.4402310139856102 -13.690947183535258 0.36475337465034585 -11.698929198126322 4.008772864092419 -11.328211568845049 66.31957704175906 -11.267271762067384 46.29169172298083 24.346408827809107 -2.808902316471604 97.6035878120419 10.415845248212417 -0.34753353177984714 -0.3559595815199195 4.513482763751524 -0.16641702511463735 -1.6304254463130436 -0.04667114134075297 -0.008417695613019102 -56.214921637880195 0.01919645988543723 0.012527061090146528 -56.20418293592376 -38.76054820995396 -0.043113820806158734 0.02147975080658996 0.007373771567683113 -0.046898462981669733 -0.04002968355216243 0.014530212180668182 0.0230992197666081 0.015363030526857675 -36.67945738453285 -0.03742243366047025 -0.03478618228825408 0.0046333978382581695 0.03771474151144338 -0.012594426463120156 -0.021569665337596883 -0.003960832508442494 -0.035871216747597974 -19.730935467335637 -0.0367327236054749 0.03619803216745959 0.01933579508611311 -0.04613539392847943 0.021607050238480672 0.006724724620833721 0.0024909305787523804 -0.04291099003642673 24.040233942995503 -0.022053365812680623 -0.03781640757914375 28.84399051965893 -0.0002828029212610304 -0.035891404686127074 28.868082172333885 -0.02392768100483066 0.026943293959982916 14.79080562252802 3.326388879682611 9.828646060824262 -62.80072320351004 5.220928086332991 -51.191855497403914 -53.48218639379764 0.8488264841130447 -94.4791462612262 -5.952867931345607 0.5146946833077466 -0.8998847649385967 -0.44859475543009775 0.10591542197021153 -8.077050556475418 -0.010030291197702197 0.008549610058208463 44.5730169441273 -0.015472080515110752 0.048173746090379145 44.536065342704816 12.414254302888445 -0.04110245290839265 0.039284595431563984 0.026511244491376394 0.028857941345892136 -0.020042627459179934 0.03498448444032046 0.035005021226524456 0.02127245243632369 11.150191651532625 0.03677004287456083 -0.025978525991984313 -0.018286619429299197 0.03473253755792798 -0.03840618844618714 -0.03965556150123731 0.04024106793801302 -0.0014170346420727268 4.727610943595153 0.011247292761169978 -0.003982503157407694 -0.014353148517030295 -0.03451754528990038 -0.007681003137729735 0.02919943948697029 -0.03487700010009253 -0.009439122458333706 -5.63638469491317 -0.006214994981399964 0.04638120969403231 -6.675332824530177 0.029384659092295113 -0.0343186450897574 -6.749422562622568 -0.01229304374281703 0.0077411333667211325 0.04894149812566565 0.03526947614861115 0.01359243729993629 8.017294751060042 3.455249104349972 -19.20549552860626 -0.013513924898155005 10.395858921071184 0.024182077957369284 -5.596657447006666 -15.612948888347091 3.1679460695504993 -0.008003638957332719 0.011720300183486427 0.00249912004058447 -0.026957728820281236 4.671708114466566 0.014268342024209086 12.501297865827901 -8.233486526267905 6.8850708556856235 0.005000913704234792 46.41506617146669 -0.019286884125946275 -4.352908866045673 -14.739251648266922 -3.843633075530091 0.0014538421053028197 -0.048543605506068926 0.017109909267307506 0.03712674225988818 -10.75800128020658 -0.0419373515473484 
-0.032636034152877316 0.033901282319559294 -0.04502934929880238 -0.036567086244650535 0.027095966095794906 -0.024118773030821227 -3.388347426420628 1.4060058554483632 -0.6997775008318529 -1.0168954594025241 3.5950267032170586 0.36298870329148997 -1.2776726693259368 -2.4253706207057433 -2.101175240722709 -1.259000596108968 -0.11801258976082668 -0.8575261210752501 -0.8668493566974049 15.697291252633406 2.2814278069636034 0.22980215656774539 1.2457555188229188 5.056180100815202 -0.5833689940455294 -13.459520416418657 0.44747144376247694 -11.70778313509865 3.9982283711814652 -11.363134504404286 65.70535331245333 -10.70183695725832 45.1034991764732 20.97452253872578 -3.253858833020169 97.89522799917671 10.112416608941093 -0.3182582972267142 -0.4810268432256357 4.518698390395603 -0.14920135696272768 -1.5774411462086737 -0.0410571773501891 0.008623767902743676 -56.213489246267706 -0.01722813206272312 -0.027391908647610215 -56.204702766524825 -38.74239004215794 0.04325417716677119 -0.03270926757045799 0.03766536136917774 0.02359906789389778 -0.03830671917883698 -0.038990916871408696 -0.020545270553749276 -0.04876915737209601 -36.666024596690626 -0.04317717956717124 -0.010462785266969775 0.00911991431605586 -0.014813253119476746 0.012042567769061227 -0.04800768606459973 -0.038957437369367534 -0.03290442676563502 -19.71687117140019 -0.04029431057348192 -0.03352332891915391 -0.04661488191901804 -0.030430274408651845 -0.0010145433465181832 0.04816830980554047 -0.0310788980826002 -0.0467030917473673 24.09388803639099 0.026841926614374675 -0.008605888591892511 28.843397970275905 -0.034105534279066214 -0.02566331206114361 28.906425862579862 0.02675436146361901 0.047000607284804895 14.773235227952322 3.351870015200362 9.8768214679303 -62.66437253929926 5.780634410435382 -50.697194252577326 -54.12454848735783 1.3717400274227725 -93.49891142803394 -6.060043520862324 0.036443739103154155 -0.48415226796161576 -0.440165044575118 0.10915624093382068 -8.167527098018796 0.03569686813612118 0.04481044434939372 44.53151668438076 -0.03418195958290903 -0.030298491705357842 44.559381542298205 12.444377185520626 -0.04155035740487886 -0.04067873640488996 0.006111666299384684 -0.016326508604664038 -0.03045909330381846 0.01527981812187182 -0.021663552639013418 0.006132841814393811 11.137142742208592 0.008243943811840668 -0.00212868907327278 0.005050438148276312 -0.005441644940095586 -0.021301645046916087 -0.049522009956086445 0.04743237455210092 0.01752495521528066 4.779289700431226 0.001736463694306245 -0.015248291953905325 -0.04451159972542872 0.015532625454424279 0.021858488194701375 -0.0006306855434692495 -0.003351760349442805 0.030241863920363352 -5.609888313054286 -0.022024004786380936 -0.04349226693911906 -6.6775496595860835 -0.04740300701279925 -0.009905210272220286 -6.718614352798666 0.015741536129048994 0.002700023652902635 -0.021941919448658767 0.031608901293742976 0.025064450431258246 8.016672429888954 3.4789869747570847 -19.210265583055907 -0.016442870678308623 10.378652072422089 -0.02447859027309848 -5.573681127056987 -15.634151970855546 3.1674715990840014 0.0028847079516358264 -0.04027188992096172 0.00476418615663747 -0.01744657079197833 4.739889875598012 -0.028711491371861134 12.43040238416796 -8.284534190396831 6.908855142458082 -0.015460320820258182 46.40302271975709 0.029966963652739573 -4.300011532243377 -14.734450884686726 -3.836466808122192 0.0002209051164214161 -0.010599146387362318 0.04081841301188179 0.03130102322051597 -10.774467928705555 -0.018279536535562645 
-0.028991387463236103 -0.028589156388180506 0.023562473090899528 0.036092431527779745 2.8032701547389787e-05 -0.019068313973572296 -3.5118775482896654 1.3122707344642666 -0.724078152897649 -1.0269830377415194 3.5082195688262097 0.4123829593632725 -1.2451319877372196 -2.416467612047496 -2.1371298448454645 -1.3039809016463444 -0.005540334257394766 -0.9665808129192133 -0.9269596606797497 15.730441857639091 2.5608290244554093 0.2968696757772131 1.4044490973489636 5.81317601039177 -0.6359813654838631 -13.15428809794312 0.4723076291536389 -11.480481409901286 3.9103056672050087 -11.540948121218067 64.99283581173101 -9.696096833554265 43.29158967142321 17.515972559717248 -3.581320866112761 98.18061964909661 9.931712260765787 -0.39125766436036763 -0.7562936660602474 4.513130999748089 -0.10140349243073656 -1.5948600746980588 0.010034803625791998 0.02235002141146039 -56.20613510130768 0.0005339620653285419 0.01302280666192949 -56.24101707726804 -38.78909637277924 -0.004193742026971176 0.010865671044129513 -0.04679872887607403 0.010786157299399695 -0.022606819499337516 0.04178270387764381 0.028946544740986593 0.022637658083898865 -36.69562456055926 -0.016454715869950422 0.021580457803998025 -0.04427398905353276 -0.0028485825744184994 -0.0034456087380743345 0.03312600314548053 0.016773461728393967 0.021175916942322525 -19.787975248673106 -3.521832723836339e-05 -0.040549705521375067 0.0012389902415274037 -0.009245172825713157 -0.03588070800986549 0.0007228388793584254 0.031904248465016334 0.03144270850805959 24.050711824443567 -0.021543679715756235 0.010261266887452866 28.8438789935302 0.0433959361763562 0.011241794036663375 28.816685547575823 0.005111648054233518 0.047121425582870344 14.650586712784394 3.2813786691280726 9.911240998707095 -62.58109999894931 6.451294154863626 -49.70047952629689 -56.1703293620653 2.4339663782983276 -92.4251148938836 -5.999302428478237 -0.39054594356099037 0.07085100208576663 -0.474572384853607 0.068551966137199 -8.138990441048032 0.031141645507405762 0.04441218278918126 44.584172594839536 -0.005711570228712123 0.029111189487965754 44.57990001290543 12.444220629111483 -0.02795422862050079 0.020072390524200876 -0.004273311300938027 0.01778507647608019 0.030406819120644416 0.013066924843178836 0.0025582264687913575 0.004274949536683296 11.111690008739332 0.014752800552615734 -0.045550107453006465 0.04377404782722567 -0.0067069703169636685 -0.021337443881090195 -0.001083538589205531 -0.011420369483476182 0.04245849504613131 4.738787590550636 -0.044007415019219794 -0.03735878965373495 -0.0351197083927562 -0.004031344350425511 0.03842359924414905 0.022346298011301953 -0.013616275579351966 0.032093902385571395 -5.600530436367443 -0.02880957548253549 -0.014450600572308089 -6.691731730744957 0.024148605871622687 -0.03780090443981952 -6.694674659423433 0.011980957893754958 -0.040826943173157236 -0.04401204902806796 -0.029904057224070302 0.011547104184373365 8.089513711460107 3.5387116971875083 -19.1918316561942 -0.03315404782535268 10.381420244578043 0.03650214838398548 -5.625617247707626 -15.65405012785567 3.195603012041698 0.02476574520621922 -0.018687009637072698 0.028576100924596025 0.004066721630144197 4.662230352503163 0.01813409645479515 12.458367869340808 -8.22556587837439 6.851942072356048 -0.04955927374013542 46.35662475942662 0.008255018307567393 -4.308422033585447 -14.754703344029664 -3.8053577115804784 0.007041500680608792 0.010559171359996017 -0.03306869715175652 -0.04394137550964942 -10.725012991022444 -0.005569557728622043 
-0.009460714253494946 -0.0389551935392284 0.009067410790830904 -0.009695870739878112 0.048680705398520825 0.044015106880970226 -3.5411437259990124 1.1801411566014313 -0.7540412450463075 -1.0520215720943262 3.5616931501919153 0.3896683414394702 -1.325618185530843 -2.4028037186811737 -2.241025840989965 -1.3319849754989737 0.03427472194834721 -0.8988402681035333 -0.9815376176732229 15.707140029409254 2.795724842070661 0.2882204909110396 1.526392431351718 6.38289473624101 -0.7538312331847937 -12.97062256946993 0.5851706075902986 -11.362900760881194 3.896396701628327 -11.704995997788071 64.07607334455254 -9.139061714931893 41.425469196509646 14.362456282353733 -3.940015995929868 98.58992464712617 9.674789637726633 -0.3619423987291741 -0.8248575901641301 4.553637886170738 -0.13861760737869927 -1.6158181644262577 -0.008271581948030451 0.005667464356482632 -56.18855533648703 -0.007603124853239461 -0.022144405935063213 -56.197628572338196 -38.7679954723582 -0.018274928032168455 0.04051577954340022 0.025016788528506233 0.007454494298260646 -0.032024935299475366 0.038859547457195186 -0.008960000577661848 0.04749350783115392 -36.73456920767368 0.011436904210571135 -0.021343699678577594 -0.040798389726547944 -0.013596641542083732 -0.03418549723474655 0.04678493143219396 -0.008761498557969285 0.02451447606384122 -19.78548777964176 0.013094764155914854 0.022061921915997266 -0.019320794466586584 0.003484886974091449 -0.0003950790657294801 0.04026013729814415 -0.0017286628784728274 0.020889496839731226 24.10163972598968 -0.024670970657219047 -0.04792406340092172 28.821399641679868 0.021366556520537622 0.04908723868010028 28.86590008746324 -0.04245629276583871 -0.017264777880554666 14.50736249919392 3.300972838207656 10.00439660658906 -62.45698356364524 7.078827135981388 -48.42580528278552 -58.58213763628437 3.7114024860537995 -91.74618049664599 -5.566144217472728 -0.6164623705791827 0.3878795217589091 -0.42862008978492283 0.061606648914290484 -8.15343583228502 -0.0008163815819534623 -0.006578376831694158 44.59250275810552 -0.03600408674399404 -0.023344960829044477 44.55892873582117 12.442031057141817 -0.020684550010476255 -0.033849210462348754 -0.0036036311409414056 0.0159997459562498 0.030109743787447078 0.04171566122586121 0.027020451753210252 -0.049764405631089026 11.101143507648137 -0.032843660241974285 -0.0014452194376477386 0.009252836694389307 0.027962108687328763 -0.037521501821459496 -0.015346683734199446 0.0342837977716025 -0.0477610657211088 4.790643672722176 0.046725614007764656 0.02664288768856063 0.03620597424847712 0.03077134459415409 0.015623993828290241 0.001540984051250808 0.002259203440536841 0.028107492223042322 -5.553146564076593 -0.024127687048087796 -0.01283081860699847 -6.727743245619458 -0.03136466254024046 0.017659451057094273 -6.712689761589783 0.015003057510063015 -0.014315809103226112 -0.005660448821260165 0.0016693401519793547 -0.03821034932281186 8.05727726760273 3.4528948645246347 -19.216873594641992 0.02198427685957556 10.42718741908076 -0.004777633317070439 -5.635051567678531 -15.620263964065195 3.1647367296384523 -0.02390507121548942 -0.014289761353942087 -0.019681128868324745 -0.032523805434990526 4.687556099818893 0.033314621845352 12.476719834586804 -8.193338755249744 6.868402958255051 0.005384901752039885 46.35226535386701 -0.001376796258898644 -4.35905138024832 -14.764622183483983 -3.806796947067228 0.035524344742711086 -0.023152203023051234 -0.03293617969459557 -0.04384917144566315 -10.732479788857345 -0.0033643128762135543 
